<?xml version="1.0" encoding="UTF-8"?>
<svg xmlns="http://www.w3.org/2000/svg" xmlns:xlink="http://www.w3.org/1999/xlink" width="434pt" height="330pt" viewBox="0 0 434 330" version="1.1">
<g id="surface1">
<path style=" stroke:none;fill-rule:nonzero;fill:rgb(18.399048%,24.699402%,36.499023%);fill-opacity:1;" d="M 60.226563 239.675781 L 60.226563 261.667969 C 60.226563 263.347656 60.375 264.367188 60.664063 264.730469 C 60.992188 265.0625 61.941406 265.226563 63.511719 265.226563 L 71.9375 265.226563 C 75.765625 265.226563 78.792969 265.007813 81.019531 264.570313 C 82.988281 264.167969 84.265625 263.640625 84.847656 262.980469 C 85.429688 262.324219 85.960938 260.792969 86.433594 258.386719 C 86.617188 257.472656 87.074219 257.035156 87.804688 257.074219 C 88.496094 257.109375 88.839844 257.601563 88.84375 258.550781 C 88.84375 258.804688 88.824219 259.207031 88.789063 259.753906 C 88.496094 263.292969 88.351563 266.519531 88.351563 269.4375 C 88.351563 271.664063 88.460938 273.871094 88.679688 276.058594 C 88.75 276.789063 88.785156 277.316406 88.789063 277.644531 C 88.789063 278.558594 88.441406 279.011719 87.75 279.011719 C 86.980469 279.011719 86.527344 278.613281 86.378906 277.808594 L 86.050781 276.277344 C 85.613281 273.832031 84.738281 272.175781 83.425781 271.296875 C 82.113281 270.421875 79.886719 269.984375 76.75 269.984375 L 64.660156 269.984375 C 62.871094 269.984375 61.667969 270.167969 61.046875 270.53125 C 60.464844 270.898438 60.171875 271.625 60.171875 272.71875 L 60.226563 274.527344 L 60.226563 294.660156 C 60.226563 297.761719 60.777344 299.695313 61.871094 300.460938 C 63 301.226563 65.824219 301.609375 70.351563 301.609375 C 84.683594 301.609375 93.894531 298.378906 97.980469 291.925781 C 98.378906 291.304688 98.78125 290.976563 99.183594 290.941406 C 99.839844 290.902344 100.167969 291.378906 100.167969 292.363281 C 100.167969 294.734375 98.835938 297.558594 96.171875 300.84375 C 92.964844 304.78125 88.914063 306.75 84.027344 306.75 C 82.96875 306.75 81.546875 306.675781 79.761719 306.53125 C 72.792969 305.875 67.03125 305.546875 62.472656 305.546875 C 56.085938 305.546875 51.585938 305.765625 48.957031 306.203125 C 47.570313 306.460938 46.621094 306.585938 46.113281 306.585938 C 44.945313 306.585938 44.363281 306.183594 44.363281 305.382813 C 44.363281 304.765625 44.835938 304.328125 45.785156 304.070313 L 47.863281 303.46875 C 50.488281 302.738281 51.800781 300.1875 51.800781 295.808594 L 51.855469 292.253906 L 51.855469 246.019531 C 51.855469 240.804688 51.273438 237.304688 50.105469 235.515625 C 48.972656 233.695313 46.75 232.78125 43.429688 232.78125 C 42.375 232.78125 41.84375 232.433594 41.84375 231.742188 C 41.84375 230.71875 42.664063 230.210938 44.308594 230.210938 C 45.21875 230.210938 46.4375 230.300781 47.972656 230.484375 C 53.1875 231.066406 59.460938 231.359375 66.792969 231.359375 C 71.242188 231.359375 75.179688 231.285156 78.609375 231.140625 L 86.378906 230.757813 C 88.53125 230.683594 89.84375 230.609375 90.320313 230.539063 C 91.304688 230.390625 92.03125 230.320313 92.507813 230.320313 C 93.710938 230.320313 94.3125 230.847656 94.3125 231.90625 C 94.3125 232.234375 94.257813 232.65625 94.148438 233.164063 C 94.039063 233.675781 93.894531 235.132813 93.710938 237.539063 L 93.492188 240.769531 C 93.308594 242.886719 93.128906 244.214844 92.945313 244.761719 C 92.761719 245.273438 92.359375 245.546875 91.742188 245.582031 C 91.046875 245.621094 90.703125 245.074219 90.703125 243.941406 L 90.703125 242.519531 C 90.703125 241.351563 90.484375 240.238281 90.046875 239.183594 C 89.351563 237.539063 87.949219 236.445313 85.832031 235.898438 C 83.71875 235.351563 79.832031 235.078125 74.179688 235.078125 L 65.589844 235.078125 C 63.328125 235.078125 61.871094 235.371094 61.214844 235.953125 C 60.554688 236.5 60.226563 237.742188 60.226563 239.675781 "/>
<path style=" stroke:none;fill-rule:evenodd;fill:rgb(18.399048%,24.699402%,36.499023%);fill-opacity:1;" d="M 138.683594 255.816406 C 140.144531 256.582031 141.546875 257.640625 142.898438 258.988281 L 142.898438 241.589844 C 142.898438 239.363281 142.640625 237.832031 142.132813 236.992188 C 141.65625 236.15625 140.492188 235.738281 138.628906 235.734375 C 138.191406 235.734375 137.808594 235.753906 137.480469 235.789063 C 137.152344 235.828125 136.421875 235.898438 135.292969 236.007813 L 135.292969 234.203125 L 139.777344 233.054688 C 141.421875 232.617188 143.0625 232.160156 144.703125 231.6875 C 146.34375 231.214844 147.785156 230.757813 149.027344 230.320313 C 149.609375 230.136719 150.574219 229.789063 151.925781 229.277344 L 152.253906 229.390625 L 152.144531 235.132813 C 152.105469 237.210938 152.070313 239.363281 152.035156 241.589844 C 151.996094 243.777344 151.980469 245.949219 151.980469 248.101563 L 151.871094 292.800781 C 151.871094 295.171875 152.160156 296.832031 152.746094 297.777344 C 153.328125 298.726563 154.878906 299.203125 157.394531 299.203125 C 157.796875 299.203125 158.199219 299.203125 158.601563 299.203125 C 159 299.164063 159.402344 299.109375 159.804688 299.035156 L 159.804688 300.84375 C 159.585938 300.914063 156.941406 301.828125 151.871094 303.578125 L 143.28125 306.804688 L 142.898438 306.3125 L 142.898438 299.585938 C 140.855469 301.808594 139.085938 303.398438 137.589844 304.34375 C 134.925781 305.984375 131.847656 306.804688 128.34375 306.804688 C 122.144531 306.804688 117.109375 304.417969 113.242188 299.640625 C 109.414063 294.824219 107.5 289.261719 107.5 282.953125 C 107.5 275.035156 109.796875 268.253906 114.394531 262.597656 C 119.023438 256.910156 124.675781 254.0625 131.355469 254.0625 C 134.015625 254.0625 136.460938 254.648438 138.683594 255.816406 Z M 140.273438 298.378906 C 142.023438 296.703125 142.898438 295.117188 142.898438 293.621094 L 142.898438 270.148438 C 142.898438 265.40625 141.621094 262.070313 139.066406 260.136719 C 136.550781 258.167969 134.089844 257.183594 131.683594 257.183594 C 127.085938 257.183594 123.511719 259.226563 120.957031 263.308594 C 118.402344 267.359375 117.128906 272.355469 117.128906 278.300781 C 117.128906 284.175781 118.476563 289.40625 121.175781 294.003906 C 123.914063 298.597656 127.980469 300.898438 133.378906 300.898438 C 136.222656 300.898438 138.519531 300.058594 140.273438 298.378906 "/>
<path style=" stroke:none;fill-rule:nonzero;fill:rgb(18.399048%,24.699402%,36.499023%);fill-opacity:1;" d="M 179.828125 255.101563 L 179.828125 290.117188 C 179.828125 292.597656 180.175781 294.589844 180.867188 296.082031 C 182.21875 298.855469 184.695313 300.242188 188.308594 300.242188 C 190.789063 300.242188 193.214844 299.417969 195.585938 297.777344 C 196.933594 296.867188 198.300781 295.609375 199.6875 294.003906 L 199.6875 264.023438 C 199.6875 261.214844 199.140625 259.371094 198.046875 258.496094 C 196.953125 257.621094 194.765625 257.09375 191.480469 256.910156 L 191.480469 255.101563 L 209.152344 255.101563 L 209.152344 293.621094 C 209.152344 296.101563 209.59375 297.816406 210.46875 298.761719 C 211.378906 299.675781 213.273438 300.078125 216.15625 299.96875 L 216.15625 301.5 C 214.148438 302.046875 212.671875 302.464844 211.726563 302.757813 C 210.777344 303.015625 209.191406 303.507813 206.964844 304.234375 C 206.015625 304.5625 203.9375 305.347656 200.730469 306.585938 C 200.546875 306.585938 200.4375 306.496094 200.398438 306.3125 C 200.363281 306.167969 200.34375 305.984375 200.34375 305.765625 L 200.34375 296.957031 C 197.863281 299.910156 195.601563 302.101563 193.5625 303.523438 C 190.460938 305.710938 187.175781 306.804688 183.714844 306.804688 C 180.539063 306.804688 177.546875 305.675781 174.738281 303.414063 C 171.894531 301.191406 170.472656 297.453125 170.472656 292.199219 L 170.472656 263.800781 C 170.472656 260.886719 169.851563 258.933594 168.613281 257.949219 C 167.808594 257.328125 166.097656 256.890625 163.46875 256.636719 L 163.46875 255.101563 L 179.828125 255.101563 "/>
<path style=" stroke:none;fill-rule:nonzero;fill:rgb(18.399048%,24.699402%,36.499023%);fill-opacity:1;" d="M 225.949219 288.53125 L 227.757813 288.53125 C 228.59375 292.691406 229.722656 295.882813 231.148438 298.105469 C 233.699219 302.191406 237.4375 304.234375 242.363281 304.234375 C 245.101563 304.234375 247.25 303.488281 248.820313 301.992188 C 250.425781 300.460938 251.226563 298.488281 251.226563 296.082031 C 251.226563 294.550781 250.769531 293.074219 249.859375 291.652344 C 248.945313 290.226563 247.34375 288.84375 245.046875 287.492188 L 238.917969 283.992188 C 234.429688 281.585938 231.128906 279.160156 229.015625 276.714844 C 226.898438 274.269531 225.839844 271.390625 225.839844 268.070313 C 225.839844 263.984375 227.300781 260.632813 230.21875 258.003906 C 233.136719 255.378906 236.800781 254.0625 241.214844 254.0625 C 243.148438 254.0625 245.261719 254.429688 247.5625 255.15625 C 249.894531 255.886719 251.210938 256.253906 251.5 256.253906 C 252.15625 256.253906 252.632813 256.160156 252.921875 255.976563 C 253.214844 255.796875 253.46875 255.503906 253.6875 255.101563 L 255.003906 255.101563 L 255.386719 270.367188 L 253.6875 270.367188 C 252.960938 266.832031 251.976563 264.078125 250.734375 262.105469 C 248.472656 258.460938 245.210938 256.636719 240.941406 256.636719 C 238.386719 256.636719 236.382813 257.417969 234.921875 258.988281 C 233.464844 260.558594 232.734375 262.398438 232.734375 264.515625 C 232.734375 267.871094 235.253906 270.859375 240.285156 273.484375 L 247.507813 277.371094 C 255.277344 281.601563 259.160156 286.527344 259.160156 292.144531 C 259.160156 296.449219 257.535156 299.96875 254.289063 302.703125 C 251.078125 305.4375 246.867188 306.804688 241.652344 306.804688 C 239.464844 306.804688 236.984375 306.441406 234.210938 305.710938 C 231.4375 304.984375 229.796875 304.617188 229.289063 304.617188 C 228.851563 304.617188 228.46875 304.78125 228.140625 305.109375 C 227.8125 305.402344 227.554688 305.765625 227.371094 306.203125 L 225.949219 306.203125 L 225.949219 288.53125 "/>
<path style=" stroke:none;fill-rule:evenodd;fill:rgb(18.399048%,24.699402%,36.499023%);fill-opacity:1;" d="M 275.136719 261.996094 C 279.769531 256.964844 285.714844 254.445313 292.972656 254.445313 C 300.195313 254.445313 306.175781 256.816406 310.917969 261.558594 C 315.660156 266.300781 318.027344 272.609375 318.03125 280.488281 C 318.03125 287.75 315.734375 294.058594 311.136719 299.417969 C 306.539063 304.78125 300.59375 307.460938 293.300781 307.460938 C 286.296875 307.460938 280.371094 304.890625 275.519531 299.746094 C 270.667969 294.605469 268.242188 288.148438 268.242188 280.378906 C 268.242188 273.121094 270.539063 266.996094 275.136719 261.996094 Z M 283.945313 260.574219 C 280.296875 263.894531 278.472656 269.621094 278.472656 277.753906 C 278.472656 284.246094 279.933594 290.300781 282.851563 295.917969 C 285.804688 301.535156 289.890625 304.34375 295.105469 304.34375 C 299.191406 304.34375 302.328125 302.464844 304.515625 298.707031 C 306.742188 294.953125 307.851563 290.027344 307.855469 283.9375 C 307.855469 277.628906 306.449219 271.683594 303.640625 266.101563 C 300.832031 260.519531 296.765625 257.730469 291.441406 257.730469 C 288.558594 257.730469 286.058594 258.679688 283.945313 260.574219 "/>
<path style=" stroke:none;fill-rule:nonzero;fill:rgb(18.399048%,24.699402%,36.499023%);fill-opacity:1;" d="M 325.253906 304.234375 C 329.117188 304.054688 331.652344 303.34375 332.855469 302.101563 C 334.097656 300.824219 334.714844 298.164063 334.71875 294.113281 L 334.71875 258.988281 L 325.363281 258.988281 L 325.363281 255.320313 L 334.71875 255.320313 C 334.71875 249.558594 335.5 244.691406 337.070313 240.714844 C 340.0625 233.09375 345.550781 229.28125 353.539063 229.277344 C 356.746094 229.277344 359.609375 229.917969 362.128906 231.195313 C 364.679688 232.472656 365.957031 234.1875 365.957031 236.335938 C 365.957031 237.539063 365.519531 238.617188 364.644531 239.566406 C 363.769531 240.515625 362.710938 240.988281 361.472656 240.988281 C 360.414063 240.988281 359.503906 240.679688 358.734375 240.058594 C 357.96875 239.402344 357.058594 238.269531 356 236.664063 L 355.070313 235.242188 C 354.558594 234.476563 353.957031 233.839844 353.265625 233.328125 C 352.570313 232.78125 351.605469 232.507813 350.363281 232.507813 C 347.59375 232.507813 345.714844 233.875 344.730469 236.609375 C 344.183594 238.070313 343.910156 239.984375 343.910156 242.355469 L 343.910156 255.320313 L 357.640625 255.320313 L 357.640625 258.988281 L 344.019531 258.988281 L 344.019531 294.113281 C 344.019531 298.234375 344.566406 300.878906 345.660156 302.046875 C 346.789063 303.179688 349.707031 303.90625 354.414063 304.234375 L 354.414063 305.765625 L 325.253906 305.765625 L 325.253906 304.234375 "/>
<path style=" stroke:none;fill-rule:nonzero;fill:rgb(18.399048%,24.699402%,36.499023%);fill-opacity:1;" d="M 390.523438 255.320313 L 390.523438 259.261719 L 379.363281 259.261719 L 379.253906 290.777344 C 379.253906 293.546875 379.488281 295.644531 379.964844 297.066406 C 380.839844 299.585938 382.554688 300.84375 385.105469 300.84375 C 386.421875 300.84375 387.550781 300.53125 388.5 299.910156 C 389.484375 299.292969 390.597656 298.308594 391.835938 296.957031 L 393.261719 298.160156 L 392.054688 299.800781 C 390.15625 302.355469 388.152344 304.164063 386.039063 305.21875 C 383.921875 306.277344 381.878906 306.804688 379.910156 306.804688 C 375.605469 306.804688 372.6875 304.890625 371.15625 301.0625 C 370.316406 298.980469 369.898438 296.101563 369.898438 292.417969 L 369.898438 259.261719 L 363.933594 259.261719 C 363.75 259.152344 363.605469 259.042969 363.496094 258.933594 C 363.421875 258.824219 363.386719 258.679688 363.386719 258.496094 C 363.386719 258.132813 363.460938 257.859375 363.605469 257.675781 C 363.785156 257.457031 364.316406 256.980469 365.191406 256.253906 C 367.710938 254.171875 369.515625 252.496094 370.609375 251.21875 C 371.738281 249.90625 374.363281 246.476563 378.488281 240.933594 C 378.960938 240.933594 379.234375 240.96875 379.308594 241.042969 C 379.417969 241.117188 379.472656 241.390625 379.472656 241.863281 L 379.472656 255.320313 L 390.523438 255.320313 "/>
<path style=" stroke:none;fill-rule:evenodd;fill:rgb(18.399048%,24.699402%,36.499023%);fill-opacity:1;" d="M 51.128906 323.542969 L 42.558594 323.542969 C 42.558594 324.261719 42.664063 324.886719 42.878906 325.417969 C 43.09375 325.945313 43.390625 326.382813 43.765625 326.71875 C 44.125 327.054688 44.550781 327.304688 45.046875 327.46875 C 45.546875 327.636719 46.09375 327.71875 46.691406 327.71875 C 47.480469 327.71875 48.277344 327.5625 49.074219 327.25 C 49.882813 326.933594 50.453125 326.621094 50.792969 326.316406 L 50.898438 326.316406 L 50.898438 328.449219 C 50.238281 328.726563 49.566406 328.960938 48.878906 329.148438 C 48.191406 329.335938 47.46875 329.429688 46.710938 329.429688 C 44.78125 329.429688 43.277344 328.90625 42.191406 327.867188 C 41.109375 326.820313 40.566406 325.332031 40.566406 323.410156 C 40.566406 321.507813 41.085938 319.996094 42.121094 318.878906 C 43.160156 317.761719 44.527344 317.203125 46.222656 317.203125 C 47.792969 317.203125 49 317.660156 49.847656 318.578125 C 50.699219 319.492188 51.128906 320.796875 51.128906 322.484375 Z M 49.222656 322.046875 C 49.214844 321.019531 48.953125 320.222656 48.441406 319.660156 C 47.933594 319.097656 47.160156 318.816406 46.117188 318.816406 C 45.070313 318.816406 44.234375 319.125 43.609375 319.742188 C 42.992188 320.363281 42.640625 321.128906 42.558594 322.046875 L 49.222656 322.046875 "/>
<path style=" stroke:none;fill-rule:evenodd;fill:rgb(18.399048%,24.699402%,36.499023%);fill-opacity:1;" d="M 67.792969 329.15625 L 65.835938 329.15625 L 65.835938 327.9375 C 65.273438 328.425781 64.6875 328.804688 64.078125 329.074219 C 63.464844 329.34375 62.804688 329.480469 62.089844 329.480469 C 60.699219 329.480469 59.59375 328.945313 58.777344 327.875 C 57.964844 326.808594 57.558594 325.324219 57.558594 323.429688 C 57.558594 322.445313 57.695313 321.566406 57.976563 320.796875 C 58.257813 320.023438 58.640625 319.367188 59.121094 318.828125 C 59.59375 318.300781 60.140625 317.898438 60.765625 317.621094 C 61.398438 317.34375 62.050781 317.203125 62.722656 317.203125 C 63.335938 317.203125 63.875 317.269531 64.347656 317.402344 C 64.820313 317.527344 65.316406 317.722656 65.835938 317.996094 L 65.835938 312.953125 L 67.792969 312.953125 Z M 65.835938 326.292969 L 65.835938 319.617188 C 65.308594 319.382813 64.835938 319.21875 64.421875 319.128906 C 64.003906 319.039063 63.550781 318.996094 63.054688 318.992188 C 61.960938 318.992188 61.105469 319.375 60.496094 320.140625 C 59.882813 320.902344 59.578125 321.988281 59.578125 323.386719 C 59.578125 324.769531 59.816406 325.824219 60.285156 326.542969 C 60.757813 327.257813 61.515625 327.617188 62.554688 327.617188 C 63.113281 327.617188 63.675781 327.496094 64.242188 327.25 C 64.8125 327 65.34375 326.683594 65.835938 326.292969 "/>
<path style=" stroke:none;fill-rule:nonzero;fill:rgb(18.399048%,24.699402%,36.499023%);fill-opacity:1;" d="M 85.554688 329.15625 L 83.597656 329.15625 L 83.597656 327.867188 C 82.9375 328.386719 82.304688 328.785156 81.703125 329.0625 C 81.097656 329.339844 80.433594 329.480469 79.703125 329.480469 C 78.480469 329.480469 77.53125 329.109375 76.851563 328.367188 C 76.167969 327.617188 75.828125 326.519531 75.828125 325.074219 L 75.828125 317.527344 L 77.785156 317.527344 L 77.785156 324.148438 C 77.785156 324.738281 77.816406 325.246094 77.871094 325.667969 C 77.925781 326.085938 78.042969 326.445313 78.222656 326.742188 C 78.410156 327.046875 78.65625 327.269531 78.953125 327.40625 C 79.25 327.546875 79.683594 327.617188 80.253906 327.617188 C 80.761719 327.617188 81.3125 327.484375 81.910156 327.21875 C 82.515625 326.957031 83.078125 326.621094 83.597656 326.210938 L 83.597656 317.527344 L 85.554688 317.527344 L 85.554688 329.15625 "/>
<path style=" stroke:none;fill-rule:nonzero;fill:rgb(18.399048%,24.699402%,36.499023%);fill-opacity:1;" d="M 102.273438 328.429688 C 101.621094 328.742188 101 328.984375 100.410156 329.15625 C 99.828125 329.332031 99.207031 329.417969 98.546875 329.417969 C 97.707031 329.417969 96.9375 329.296875 96.234375 329.054688 C 95.535156 328.804688 94.933594 328.429688 94.433594 327.929688 C 93.925781 327.429688 93.535156 326.796875 93.257813 326.035156 C 92.980469 325.269531 92.839844 324.378906 92.839844 323.355469 C 92.839844 321.457031 93.359375 319.964844 94.402344 318.878906 C 95.449219 317.796875 96.832031 317.253906 98.546875 317.253906 C 99.214844 317.253906 99.867188 317.347656 100.503906 317.535156 C 101.148438 317.722656 101.738281 317.953125 102.273438 318.222656 L 102.273438 320.398438 L 102.171875 320.398438 C 101.574219 319.933594 100.953125 319.578125 100.316406 319.328125 C 99.683594 319.078125 99.066406 318.953125 98.464844 318.953125 C 97.351563 318.953125 96.472656 319.328125 95.828125 320.078125 C 95.191406 320.820313 94.871094 321.914063 94.871094 323.355469 C 94.871094 324.761719 95.183594 325.839844 95.808594 326.597656 C 96.441406 327.34375 97.324219 327.71875 98.464844 327.71875 C 98.859375 327.71875 99.261719 327.667969 99.671875 327.5625 C 100.082031 327.460938 100.449219 327.324219 100.773438 327.15625 C 101.058594 327.011719 101.328125 326.859375 101.578125 326.699219 C 101.828125 326.535156 102.023438 326.390625 102.171875 326.273438 L 102.273438 326.273438 L 102.273438 328.429688 "/>
<path style=" stroke:none;fill-rule:evenodd;fill:rgb(18.399048%,24.699402%,36.499023%);fill-opacity:1;" d="M 118.089844 329.15625 L 116.140625 329.15625 L 116.140625 327.917969 C 115.96875 328.035156 115.730469 328.203125 115.433594 328.417969 C 115.140625 328.625 114.855469 328.792969 114.578125 328.917969 C 114.253906 329.078125 113.878906 329.210938 113.453125 329.3125 C 113.03125 329.425781 112.535156 329.480469 111.964844 329.480469 C 110.917969 329.480469 110.027344 329.132813 109.300781 328.4375 C 108.570313 327.746094 108.207031 326.859375 108.207031 325.785156 C 108.207031 324.902344 108.394531 324.191406 108.769531 323.648438 C 109.148438 323.101563 109.691406 322.671875 110.394531 322.359375 C 111.101563 322.046875 111.953125 321.832031 112.945313 321.722656 C 113.9375 321.613281 115.003906 321.527344 116.140625 321.472656 L 116.140625 321.171875 C 116.140625 320.726563 116.0625 320.359375 115.902344 320.066406 C 115.75 319.777344 115.527344 319.546875 115.234375 319.378906 C 114.957031 319.21875 114.625 319.113281 114.234375 319.054688 C 113.847656 319 113.441406 318.972656 113.015625 318.972656 C 112.503906 318.972656 111.929688 319.042969 111.300781 319.179688 C 110.667969 319.3125 110.015625 319.507813 109.339844 319.765625 L 109.238281 319.765625 L 109.238281 317.777344 C 109.617188 317.671875 110.171875 317.558594 110.894531 317.433594 C 111.613281 317.308594 112.324219 317.246094 113.027344 317.246094 C 113.847656 317.246094 114.558594 317.316406 115.164063 317.453125 C 115.773438 317.585938 116.300781 317.8125 116.746094 318.140625 C 117.183594 318.460938 117.515625 318.871094 117.746094 319.378906 C 117.972656 319.886719 118.089844 320.515625 118.089844 321.265625 Z M 116.140625 326.292969 L 116.140625 323.054688 C 115.542969 323.089844 114.839844 323.140625 114.027344 323.210938 C 113.222656 323.28125 112.582031 323.382813 112.109375 323.511719 C 111.550781 323.671875 111.09375 323.921875 110.746094 324.261719 C 110.398438 324.597656 110.226563 325.058594 110.226563 325.648438 C 110.226563 326.316406 110.425781 326.820313 110.828125 327.15625 C 111.234375 327.492188 111.847656 327.65625 112.671875 327.65625 C 113.359375 327.65625 113.988281 327.527344 114.558594 327.261719 C 115.128906 326.992188 115.65625 326.667969 116.140625 326.292969 "/>
<path style=" stroke:none;fill-rule:nonzero;fill:rgb(18.399048%,24.699402%,36.499023%);fill-opacity:1;" d="M 132.164063 329.054688 C 131.796875 329.152344 131.394531 329.230469 130.953125 329.292969 C 130.523438 329.355469 130.140625 329.386719 129.800781 329.386719 C 128.613281 329.386719 127.710938 329.066406 127.09375 328.429688 C 126.472656 327.789063 126.164063 326.765625 126.164063 325.355469 L 126.164063 319.171875 L 124.84375 319.171875 L 124.84375 317.527344 L 126.164063 317.527344 L 126.164063 314.183594 L 128.121094 314.183594 L 128.121094 317.527344 L 132.164063 317.527344 L 132.164063 319.171875 L 128.121094 319.171875 L 128.121094 324.472656 C 128.121094 325.082031 128.136719 325.5625 128.164063 325.910156 C 128.191406 326.25 128.289063 326.570313 128.457031 326.867188 C 128.609375 327.144531 128.816406 327.347656 129.078125 327.480469 C 129.351563 327.605469 129.761719 327.667969 130.308594 327.667969 C 130.628906 327.667969 130.960938 327.625 131.308594 327.53125 C 131.65625 327.4375 131.90625 327.355469 132.058594 327.292969 L 132.164063 327.292969 L 132.164063 329.054688 "/>
<path style=" stroke:none;fill-rule:evenodd;fill:rgb(18.399048%,24.699402%,36.499023%);fill-opacity:1;" d="M 140.894531 315.578125 L 138.6875 315.578125 L 138.6875 313.546875 L 140.894531 313.546875 Z M 140.769531 329.15625 L 138.8125 329.15625 L 138.8125 317.527344 L 140.769531 317.527344 L 140.769531 329.15625 "/>
<path style=" stroke:none;fill-rule:evenodd;fill:rgb(18.399048%,24.699402%,36.499023%);fill-opacity:1;" d="M 158.824219 323.347656 C 158.824219 325.242188 158.335938 326.738281 157.363281 327.835938 C 156.394531 328.933594 155.089844 329.480469 153.460938 329.480469 C 151.816406 329.480469 150.507813 328.933594 149.535156 327.835938 C 148.570313 326.738281 148.085938 325.242188 148.085938 323.347656 C 148.085938 321.453125 148.570313 319.957031 149.535156 318.859375 C 150.507813 317.753906 151.8125 317.203125 153.460938 317.203125 C 155.089844 317.203125 156.394531 317.753906 157.363281 318.859375 C 158.335938 319.957031 158.824219 321.453125 158.824219 323.347656 Z M 156.804688 323.347656 C 156.804688 321.839844 156.507813 320.722656 155.917969 319.992188 C 155.328125 319.257813 154.507813 318.890625 153.460938 318.890625 C 152.398438 318.890625 151.570313 319.257813 150.980469 319.992188 C 150.398438 320.722656 150.105469 321.839844 150.105469 323.347656 C 150.105469 324.804688 150.402344 325.914063 150.992188 326.667969 C 151.582031 327.417969 152.40625 327.792969 153.460938 327.792969 C 154.503906 327.792969 155.316406 327.421875 155.90625 326.679688 C 156.503906 325.929688 156.800781 324.820313 156.804688 323.347656 "/>
<path style=" stroke:none;fill-rule:nonzero;fill:rgb(18.399048%,24.699402%,36.499023%);fill-opacity:1;" d="M 175.84375 329.15625 L 173.886719 329.15625 L 173.886719 322.535156 C 173.886719 322 173.855469 321.5 173.792969 321.035156 C 173.730469 320.5625 173.617188 320.195313 173.449219 319.929688 C 173.277344 319.640625 173.027344 319.425781 172.699219 319.285156 C 172.371094 319.140625 171.949219 319.066406 171.429688 319.066406 C 170.894531 319.066406 170.335938 319.199219 169.753906 319.464844 C 169.171875 319.726563 168.609375 320.0625 168.074219 320.472656 L 168.074219 329.15625 L 166.117188 329.15625 L 166.117188 317.527344 L 168.074219 317.527344 L 168.074219 318.816406 C 168.6875 318.308594 169.320313 317.914063 169.972656 317.628906 C 170.625 317.34375 171.292969 317.203125 171.980469 317.203125 C 173.238281 317.203125 174.195313 317.582031 174.855469 318.339844 C 175.515625 319.09375 175.84375 320.183594 175.84375 321.609375 L 175.84375 329.15625 "/>
<path style=" stroke:none;fill-rule:nonzero;fill:rgb(18.399048%,24.699402%,36.499023%);fill-opacity:1;" d="M 201.898438 314.847656 L 201.796875 314.847656 C 201.582031 314.785156 201.300781 314.722656 200.953125 314.660156 C 200.605469 314.59375 200.300781 314.558594 200.035156 314.558594 C 199.195313 314.558594 198.585938 314.746094 198.203125 315.121094 C 197.828125 315.488281 197.640625 316.160156 197.640625 317.128906 L 197.640625 317.527344 L 201.171875 317.527344 L 201.171875 319.171875 L 197.703125 319.171875 L 197.703125 329.15625 L 195.746094 329.15625 L 195.746094 319.171875 L 194.425781 319.171875 L 194.425781 317.527344 L 195.746094 317.527344 L 195.746094 317.140625 C 195.746094 315.757813 196.089844 314.699219 196.777344 313.964844 C 197.464844 313.222656 198.457031 312.851563 199.753906 312.851563 C 200.191406 312.851563 200.585938 312.871094 200.933594 312.914063 C 201.285156 312.953125 201.609375 313.003906 201.898438 313.058594 L 201.898438 314.847656 "/>
<path style=" stroke:none;fill-rule:evenodd;fill:rgb(18.399048%,24.699402%,36.499023%);fill-opacity:1;" d="M 217.316406 323.347656 C 217.316406 325.242188 216.832031 326.738281 215.859375 327.835938 C 214.890625 328.933594 213.585938 329.480469 211.953125 329.480469 C 210.308594 329.480469 209.003906 328.933594 208.03125 327.835938 C 207.0625 326.738281 206.582031 325.242188 206.582031 323.347656 C 206.582031 321.453125 207.0625 319.957031 208.03125 318.859375 C 209.003906 317.753906 210.308594 317.203125 211.953125 317.203125 C 213.585938 317.203125 214.890625 317.753906 215.859375 318.859375 C 216.832031 319.957031 217.316406 321.453125 217.316406 323.347656 Z M 215.296875 323.347656 C 215.296875 321.839844 215.003906 320.722656 214.414063 319.992188 C 213.824219 319.257813 213.003906 318.890625 211.953125 318.890625 C 210.894531 318.890625 210.066406 319.257813 209.476563 319.992188 C 208.894531 320.722656 208.601563 321.839844 208.601563 323.347656 C 208.601563 324.804688 208.898438 325.914063 209.488281 326.667969 C 210.078125 327.417969 210.898438 327.792969 211.953125 327.792969 C 212.996094 327.792969 213.8125 327.421875 214.402344 326.679688 C 215 325.929688 215.296875 324.820313 215.296875 323.347656 "/>
<path style=" stroke:none;fill-rule:nonzero;fill:rgb(18.399048%,24.699402%,36.499023%);fill-opacity:1;" d="M 231.871094 319.660156 L 231.769531 319.660156 C 231.476563 319.589844 231.191406 319.542969 230.914063 319.515625 C 230.644531 319.480469 230.320313 319.464844 229.945313 319.464844 C 229.34375 319.464844 228.757813 319.597656 228.195313 319.867188 C 227.632813 320.132813 227.09375 320.476563 226.570313 320.898438 L 226.570313 329.15625 L 224.613281 329.15625 L 224.613281 317.527344 L 226.570313 317.527344 L 226.570313 319.242188 C 227.347656 318.617188 228.03125 318.179688 228.621094 317.921875 C 229.21875 317.65625 229.828125 317.527344 230.445313 317.527344 C 230.785156 317.527344 231.03125 317.535156 231.183594 317.558594 C 231.335938 317.570313 231.566406 317.601563 231.871094 317.652344 L 231.871094 319.660156 "/>
<path style=" stroke:none;fill-rule:evenodd;fill:rgb(18.399048%,24.699402%,36.499023%);fill-opacity:1;" d="M 259.480469 323.542969 L 250.910156 323.542969 C 250.910156 324.261719 251.015625 324.886719 251.230469 325.417969 C 251.445313 325.945313 251.742188 326.382813 252.117188 326.71875 C 252.476563 327.054688 252.90625 327.304688 253.398438 327.46875 C 253.898438 327.636719 254.445313 327.71875 255.042969 327.71875 C 255.835938 327.71875 256.628906 327.5625 257.429688 327.25 C 258.234375 326.933594 258.804688 326.621094 259.144531 326.316406 L 259.25 326.316406 L 259.25 328.449219 C 258.589844 328.726563 257.917969 328.960938 257.230469 329.148438 C 256.542969 329.335938 255.820313 329.429688 255.0625 329.429688 C 253.132813 329.429688 251.628906 328.90625 250.546875 327.867188 C 249.460938 326.820313 248.921875 325.332031 248.921875 323.410156 C 248.921875 321.507813 249.4375 319.996094 250.472656 318.878906 C 251.511719 317.761719 252.882813 317.203125 254.574219 317.203125 C 256.144531 317.203125 257.351563 317.660156 258.199219 318.578125 C 259.054688 319.492188 259.480469 320.796875 259.480469 322.484375 Z M 257.574219 322.046875 C 257.566406 321.019531 257.308594 320.222656 256.792969 319.660156 C 256.285156 319.097656 255.511719 318.816406 254.472656 318.816406 C 253.421875 318.816406 252.585938 319.125 251.960938 319.742188 C 251.34375 320.363281 250.992188 321.128906 250.910156 322.046875 L 257.574219 322.046875 "/>
<path style=" stroke:none;fill-rule:nonzero;fill:rgb(18.399048%,24.699402%,36.499023%);fill-opacity:1;" d="M 276.78125 329.15625 L 274.3125 329.15625 L 271.011719 324.691406 L 267.691406 329.15625 L 265.410156 329.15625 L 269.949219 323.355469 L 265.453125 317.527344 L 267.921875 317.527344 L 271.199219 321.921875 L 274.492188 317.527344 L 276.78125 317.527344 L 272.210938 323.253906 L 276.78125 329.15625 "/>
<path style=" stroke:none;fill-rule:nonzero;fill:rgb(18.399048%,24.699402%,36.499023%);fill-opacity:1;" d="M 292.199219 328.429688 C 291.546875 328.742188 290.925781 328.984375 290.335938 329.15625 C 289.753906 329.332031 289.132813 329.417969 288.472656 329.417969 C 287.632813 329.417969 286.859375 329.296875 286.160156 329.054688 C 285.460938 328.804688 284.859375 328.429688 284.359375 327.929688 C 283.851563 327.429688 283.460938 326.796875 283.183594 326.035156 C 282.902344 325.269531 282.765625 324.378906 282.765625 323.355469 C 282.765625 321.457031 283.285156 319.964844 284.328125 318.878906 C 285.375 317.796875 286.757813 317.253906 288.472656 317.253906 C 289.140625 317.253906 289.789063 317.347656 290.429688 317.535156 C 291.074219 317.722656 291.664063 317.953125 292.199219 318.222656 L 292.199219 320.398438 L 292.097656 320.398438 C 291.5 319.933594 290.882813 319.578125 290.242188 319.328125 C 289.609375 319.078125 288.992188 318.953125 288.390625 318.953125 C 287.277344 318.953125 286.398438 319.328125 285.753906 320.078125 C 285.117188 320.820313 284.796875 321.914063 284.796875 323.355469 C 284.796875 324.761719 285.109375 325.839844 285.734375 326.597656 C 286.363281 327.34375 287.25 327.71875 288.390625 327.71875 C 288.785156 327.71875 289.1875 327.667969 289.597656 327.5625 C 290.007813 327.460938 290.375 327.324219 290.699219 327.15625 C 290.984375 327.011719 291.253906 326.859375 291.503906 326.699219 C 291.753906 326.535156 291.949219 326.390625 292.097656 326.273438 L 292.199219 326.273438 L 292.199219 328.429688 "/>
<path style=" stroke:none;fill-rule:evenodd;fill:rgb(18.399048%,24.699402%,36.499023%);fill-opacity:1;" d="M 308.710938 323.542969 L 300.140625 323.542969 C 300.140625 324.261719 300.246094 324.886719 300.464844 325.417969 C 300.679688 325.945313 300.972656 326.382813 301.347656 326.71875 C 301.710938 327.054688 302.136719 327.304688 302.628906 327.46875 C 303.128906 327.636719 303.679688 327.71875 304.273438 327.71875 C 305.066406 327.71875 305.859375 327.5625 306.660156 327.25 C 307.464844 326.933594 308.039063 326.621094 308.378906 326.316406 L 308.480469 326.316406 L 308.480469 328.449219 C 307.824219 328.726563 307.148438 328.960938 306.460938 329.148438 C 305.773438 329.335938 305.054688 329.429688 304.296875 329.429688 C 302.367188 329.429688 300.859375 328.90625 299.777344 327.867188 C 298.695313 326.820313 298.152344 325.332031 298.152344 323.410156 C 298.152344 321.507813 298.667969 319.996094 299.703125 318.878906 C 300.746094 317.761719 302.113281 317.203125 303.808594 317.203125 C 305.375 317.203125 306.582031 317.660156 307.429688 318.578125 C 308.285156 319.492188 308.710938 320.796875 308.710938 322.484375 Z M 306.804688 322.046875 C 306.800781 321.019531 306.539063 320.222656 306.023438 319.660156 C 305.519531 319.097656 304.742188 318.816406 303.703125 318.816406 C 302.652344 318.816406 301.816406 319.125 301.191406 319.742188 C 300.574219 320.363281 300.226563 321.128906 300.140625 322.046875 L 306.804688 322.046875 "/>
<path style=" stroke:none;fill-rule:nonzero;fill:rgb(18.399048%,24.699402%,36.499023%);fill-opacity:1;" d="M 317.921875 329.15625 L 315.964844 329.15625 L 315.964844 312.953125 L 317.921875 312.953125 L 317.921875 329.15625 "/>
<path style=" stroke:none;fill-rule:nonzero;fill:rgb(18.399048%,24.699402%,36.499023%);fill-opacity:1;" d="M 328.039063 329.15625 L 326.082031 329.15625 L 326.082031 312.953125 L 328.039063 312.953125 L 328.039063 329.15625 "/>
<path style=" stroke:none;fill-rule:evenodd;fill:rgb(18.399048%,24.699402%,36.499023%);fill-opacity:1;" d="M 345.914063 323.542969 L 337.347656 323.542969 C 337.347656 324.261719 337.453125 324.886719 337.667969 325.417969 C 337.882813 325.945313 338.179688 326.382813 338.554688 326.71875 C 338.914063 327.054688 339.339844 327.304688 339.835938 327.46875 C 340.335938 327.636719 340.882813 327.71875 341.480469 327.71875 C 342.269531 327.71875 343.066406 327.5625 343.863281 327.25 C 344.671875 326.933594 345.242188 326.621094 345.582031 326.316406 L 345.6875 326.316406 L 345.6875 328.449219 C 345.027344 328.726563 344.355469 328.960938 343.664063 329.148438 C 342.980469 329.335938 342.257813 329.429688 341.5 329.429688 C 339.570313 329.429688 338.0625 328.90625 336.980469 327.867188 C 335.898438 326.820313 335.355469 325.332031 335.355469 323.410156 C 335.355469 321.507813 335.875 319.996094 336.90625 318.878906 C 337.949219 317.761719 339.316406 317.203125 341.011719 317.203125 C 342.578125 317.203125 343.789063 317.660156 344.636719 318.578125 C 345.488281 319.492188 345.914063 320.796875 345.914063 322.484375 Z M 344.011719 322.046875 C 344.003906 321.019531 343.742188 320.222656 343.230469 319.660156 C 342.722656 319.097656 341.949219 318.816406 340.90625 318.816406 C 339.859375 318.816406 339.023438 319.125 338.398438 319.742188 C 337.777344 320.363281 337.429688 321.128906 337.347656 322.046875 L 344.011719 322.046875 "/>
<path style=" stroke:none;fill-rule:nonzero;fill:rgb(18.399048%,24.699402%,36.499023%);fill-opacity:1;" d="M 362.875 329.15625 L 360.917969 329.15625 L 360.917969 322.535156 C 360.917969 322 360.886719 321.5 360.824219 321.035156 C 360.761719 320.5625 360.644531 320.195313 360.480469 319.929688 C 360.304688 319.640625 360.054688 319.425781 359.730469 319.285156 C 359.402344 319.140625 358.980469 319.066406 358.460938 319.066406 C 357.925781 319.066406 357.367188 319.199219 356.78125 319.464844 C 356.199219 319.726563 355.640625 320.0625 355.105469 320.472656 L 355.105469 329.15625 L 353.148438 329.15625 L 353.148438 317.527344 L 355.105469 317.527344 L 355.105469 318.816406 C 355.71875 318.308594 356.347656 317.914063 357.003906 317.628906 C 357.652344 317.34375 358.324219 317.203125 359.011719 317.203125 C 360.269531 317.203125 361.226563 317.582031 361.886719 318.339844 C 362.546875 319.09375 362.875 320.183594 362.875 321.609375 L 362.875 329.15625 "/>
<path style=" stroke:none;fill-rule:nonzero;fill:rgb(18.399048%,24.699402%,36.499023%);fill-opacity:1;" d="M 379.511719 328.429688 C 378.859375 328.742188 378.238281 328.984375 377.648438 329.15625 C 377.0625 329.332031 376.441406 329.417969 375.78125 329.417969 C 374.941406 329.417969 374.171875 329.296875 373.472656 329.054688 C 372.769531 328.804688 372.171875 328.429688 371.671875 327.929688 C 371.164063 327.429688 370.769531 326.796875 370.492188 326.035156 C 370.214844 325.269531 370.078125 324.378906 370.078125 323.355469 C 370.078125 321.457031 370.597656 319.964844 371.640625 318.878906 C 372.6875 317.796875 374.066406 317.253906 375.78125 317.253906 C 376.449219 317.253906 377.101563 317.347656 377.742188 317.535156 C 378.386719 317.722656 378.976563 317.953125 379.511719 318.222656 L 379.511719 320.398438 L 379.40625 320.398438 C 378.808594 319.933594 378.191406 319.578125 377.554688 319.328125 C 376.921875 319.078125 376.304688 318.953125 375.699219 318.953125 C 374.589844 318.953125 373.710938 319.328125 373.066406 320.078125 C 372.425781 320.820313 372.105469 321.914063 372.105469 323.355469 C 372.105469 324.761719 372.421875 325.839844 373.046875 326.597656 C 373.675781 327.34375 374.5625 327.71875 375.699219 327.71875 C 376.097656 327.71875 376.496094 327.667969 376.90625 327.5625 C 377.316406 327.460938 377.683594 327.324219 378.011719 327.15625 C 378.296875 327.011719 378.5625 326.859375 378.8125 326.699219 C 379.0625 326.535156 379.261719 326.390625 379.40625 326.273438 L 379.511719 326.273438 L 379.511719 328.429688 "/>
<path style=" stroke:none;fill-rule:evenodd;fill:rgb(18.399048%,24.699402%,36.499023%);fill-opacity:1;" d="M 396.023438 323.542969 L 387.453125 323.542969 C 387.453125 324.261719 387.558594 324.886719 387.773438 325.417969 C 387.988281 325.945313 388.285156 326.382813 388.660156 326.71875 C 389.019531 327.054688 389.449219 327.304688 389.941406 327.46875 C 390.441406 327.636719 390.988281 327.71875 391.585938 327.71875 C 392.378906 327.71875 393.171875 327.5625 393.972656 327.25 C 394.777344 326.933594 395.347656 326.621094 395.6875 326.316406 L 395.792969 326.316406 L 395.792969 328.449219 C 395.132813 328.726563 394.460938 328.960938 393.773438 329.148438 C 393.085938 329.335938 392.363281 329.429688 391.605469 329.429688 C 389.675781 329.429688 388.171875 328.90625 387.089844 327.867188 C 386.003906 326.820313 385.464844 325.332031 385.464844 323.410156 C 385.464844 321.507813 385.980469 319.996094 387.015625 318.878906 C 388.054688 317.761719 389.425781 317.203125 391.117188 317.203125 C 392.6875 317.203125 393.894531 317.660156 394.742188 318.578125 C 395.59375 319.492188 396.023438 320.796875 396.023438 322.484375 Z M 394.117188 322.046875 C 394.109375 321.019531 393.847656 320.222656 393.335938 319.660156 C 392.828125 319.097656 392.054688 318.816406 391.015625 318.816406 C 389.964844 318.816406 389.128906 319.125 388.503906 319.742188 C 387.886719 320.363281 387.535156 321.128906 387.453125 322.046875 L 394.117188 322.046875 "/>
<path style=" stroke:none;fill-rule:nonzero;fill:rgb(18.399048%,24.699402%,36.499023%);fill-opacity:1;" d="M 215.898438 101.34375 L 255.828125 118.28125 L 259.003906 114.199219 C 259.003906 114.199219 262.785156 102.703125 268.6875 92.570313 C 274.585938 82.4375 276.550781 77.898438 281.089844 74.722656 C 285.625 71.546875 287.136719 69.125 295.304688 66.855469 C 303.472656 64.589844 336.597656 55.058594 336.597656 55.058594 C 336.597656 55.058594 354.898438 51.730469 356.714844 51.730469 C 358.527344 51.730469 362.613281 51.730469 362.613281 51.730469 L 360.796875 49.464844 L 312.246094 41.296875 C 312.246094 41.296875 304.53125 38.421875 298.027344 39.328125 C 291.523438 40.238281 254.46875 48.101563 254.46875 48.101563 L 245.695313 50.824219 L 243.425781 52.1875 L 219.984375 49.011719 C 219.984375 49.011719 210.605469 34.941406 206.824219 29.347656 C 203.042969 23.75 190.1875 10.441406 187.011719 8.171875 C 183.835938 5.902344 171.128906 2.726563 166.894531 2.726563 C 162.65625 2.726563 135.128906 0.910156 135.128906 0.910156 C 135.128906 0.910156 142.542969 11.046875 144.355469 13.3125 C 146.171875 15.582031 156.609375 26.625 161.296875 28.4375 C 165.984375 30.253906 172.035156 31.917969 178.390625 37.96875 C 184.742188 44.019531 211.359375 78.351563 211.359375 78.351563 C 211.359375 78.351563 213.628906 89.394531 214.085938 92.570313 C 214.539063 95.746094 215.898438 101.34375 215.898438 101.34375 "/>
<path style=" stroke:none;fill-rule:nonzero;fill:rgb(18.399048%,24.699402%,36.499023%);fill-opacity:1;" d="M 237.527344 13.769531 C 237.527344 13.769531 233.292969 23.601563 232.386719 25.113281 C 231.476563 26.625 230.117188 32.070313 230.570313 33.886719 C 231.023438 35.699219 235.257813 38.421875 239.34375 39.328125 C 243.425781 40.238281 248.570313 39.328125 251.292969 32.976563 C 254.015625 26.625 254.921875 22.390625 253.5625 20.121094 C 252.199219 17.851563 247.511719 11.347656 247.511719 11.347656 L 242.519531 9.078125 L 237.527344 13.769531 "/>
<path style=" stroke:none;fill-rule:nonzero;fill:rgb(96.099854%,58.399963%,18.798828%);fill-opacity:1;" d="M 0.660156 230.871094 C 48.597656 208.65625 125.347656 194.269531 211.851563 194.269531 C 305.226563 194.269531 387.234375 211.03125 433.910156 236.304688 C 378.867188 218.160156 298.195313 206.707031 208.296875 206.707031 C 127.742188 206.707031 54.59375 215.902344 0.660156 230.871094 "/>
<path style=" stroke:none;fill-rule:nonzero;fill:rgb(18.399048%,24.699402%,36.499023%);fill-opacity:1;" d="M 116.375 204.949219 L 129.230469 205.402344 C 129.230469 205.402344 137.851563 197.539063 146.171875 194.363281 C 154.492188 191.1875 164.625 188.917969 170.070313 188.917969 C 175.515625 188.917969 178.390625 188.917969 178.390625 188.917969 L 198.503906 160.480469 L 214.085938 144.449219 L 219.074219 139.910156 L 226.484375 137.039063 L 242.519531 149.441406 L 257.644531 167.742188 L 264.601563 175.605469 L 272.769531 187.101563 C 272.769531 187.101563 283.660156 206.160156 287.894531 209.488281 C 292.128906 212.816406 304.53125 224.308594 306.800781 225.671875 C 309.070313 227.03125 311.792969 229.300781 311.792969 229.300781 L 303.019531 203.136719 C 303.019531 203.136719 293.945313 185.890625 293.492188 183.472656 C 293.035156 181.050781 290.617188 179.238281 290.617188 179.238281 C 290.617188 179.238281 290.617188 169.101563 286.078125 163.65625 C 281.542969 158.214844 270.046875 144.449219 270.046875 144.449219 L 253.5625 125.089844 L 219.074219 110.871094 C 219.074219 110.871094 196.839844 127.054688 193.96875 127.964844 C 191.09375 128.871094 176.875 140.820313 174.605469 141.726563 C 172.339844 142.632813 164.171875 153.523438 164.171875 153.523438 L 142.542969 176.96875 L 116.375 204.949219 "/>
</g>
</svg>
